<?xml version="1.0" encoding="UTF-8" standalone="no"?>
<!-- Uploaded to: SVG Repo, www.svgrepo.com, Generator: SVG Repo Mixer Tools -->

<svg
   width="666.66699"
   height="666.66699"
   viewBox="0 0 20.00001 20.00001"
   fill="none"
   version="1.1"
   id="svg1"
   sodipodi:docname="github.svg"
   inkscape:version="1.4.2 (ebf0e940, 2025-05-08)"
   xmlns:inkscape="http://www.inkscape.org/namespaces/inkscape"
   xmlns:sodipodi="http://sodipodi.sourceforge.net/DTD/sodipodi-0.dtd"
   xmlns="http://www.w3.org/2000/svg"
   xmlns:svg="http://www.w3.org/2000/svg">
  <defs
     id="defs1" />
  <sodipodi:namedview
     id="namedview1"
     pagecolor="#ffffff"
     bordercolor="#000000"
     borderopacity="0.25"
     inkscape:showpageshadow="2"
     inkscape:pageopacity="0.0"
     inkscape:pagecheckerboard="0"
     inkscape:deskcolor="#d1d1d1"
     inkscape:zoom="0.72390057"
     inkscape:cx="568.44824"
     inkscape:cy="408.20523"
     inkscape:window-width="1920"
     inkscape:window-height="968"
     inkscape:window-x="0"
     inkscape:window-y="25"
     inkscape:window-maximized="0"
     inkscape:current-layer="svg1" />
  <path
     fill-rule="evenodd"
     clip-rule="evenodd"
     d="m 10.000005,0.24670313 c -5.5250002,0 -9.9999999985901,4.47499997 -9.9999999985901,9.99999987 0,4.425 2.8624999985901,8.1625 6.8374997985901,9.4875 0.5,0.0875 0.6875,-0.2125 0.6875,-0.475 0,-0.2375 -0.0125,-1.025 -0.0125,-1.8625 -2.5125,0.4625 -3.1625,-0.6125 -3.3625,-1.175 -0.1125,-0.2875 -0.6,-1.175 -1.025,-1.4125 -0.3499998,-0.1875 -0.8499998,-0.65 -0.0125,-0.6625 0.7875,-0.0125 1.35,0.725 1.5375,1.025 0.9,1.5125 2.3375,1.0875 2.9125,0.825 0.0875,-0.65 0.35,-1.0875 0.6375,-1.3375 -2.225,-0.25 -4.55,-1.1125 -4.55,-4.9374999 0,-1.0875 0.3875,-1.9875 1.025,-2.6875 -0.1,-0.25 -0.45,-1.275 0.1,-2.65 0,0 0.8375,-0.2625 2.75,1.025 0.8,-0.225 1.65,-0.3375 2.5000002,-0.3375 0.85,0 1.7,0.1125 2.5,0.3375 1.9125,-1.3 2.75,-1.025 2.75,-1.025 0.55,1.375 0.2,2.4 0.1,2.65 0.6375,0.7 1.025,1.5875 1.025,2.6875 0,3.8374999 -2.3375,4.6874999 -4.5625,4.9374999 0.3625,0.3125 0.675,0.9125 0.675,1.85 0,1.3375 -0.0125,2.4125 -0.0125,2.75 0,0.2625 0.1875,0.575 0.6875,0.475 1.9852,-0.6702 3.7102,-1.946 4.9323,-3.648 1.2221,-1.7019 1.8797,-3.7442 1.8802,-5.8395 0,-5.5249999 -4.475,-9.99999988 -10,-9.99999987 z"
     fill="#000000"
     id="path1-0-13"
     style="fill:#ffffff" />
</svg>
