<?xml version="1.0" encoding="UTF-8" standalone="no"?>
<!-- Uploaded to: SVG Repo, www.svgrepo.com, Generator: SVG Repo Mixer Tools -->

<svg
   width="878.20117"
   height="878.20117"
   viewBox="0 0 26.346035 26.346035"
   fill="none"
   version="1.1"
   id="svg1"
   sodipodi:docname="heart.svg"
   inkscape:version="1.4.2 (ebf0e940, 2025-05-08)"
   xmlns:inkscape="http://www.inkscape.org/namespaces/inkscape"
   xmlns:sodipodi="http://sodipodi.sourceforge.net/DTD/sodipodi-0.dtd"
   xmlns="http://www.w3.org/2000/svg"
   xmlns:svg="http://www.w3.org/2000/svg">
  <defs
     id="defs1" />
  <sodipodi:namedview
     id="namedview1"
     pagecolor="#ffffff"
     bordercolor="#000000"
     borderopacity="0.25"
     inkscape:showpageshadow="2"
     inkscape:pageopacity="0.0"
     inkscape:pagecheckerboard="0"
     inkscape:deskcolor="#d1d1d1"
     inkscape:zoom="0.2559375"
     inkscape:cx="234.43223"
     inkscape:cy="822.46642"
     inkscape:window-width="1920"
     inkscape:window-height="968"
     inkscape:window-x="0"
     inkscape:window-y="25"
     inkscape:window-maximized="0"
     inkscape:current-layer="svg1" />
  <path
     d="M 13.172988,0 A 13.173007,13.173007 0 0 0 0,13.173047 13.173007,13.173007 0 0 0 13.172988,26.346035 13.173007,13.173007 0 0 0 26.346035,13.173047 13.173007,13.173007 0 0 0 13.172988,0 Z M 8.967363,6.4882031 c 0.128021,-8.849e-4 0.256688,0.00355 0.38584,0.013418 1.423959,0.1087488 2.873545,0.9229571 4.021758,2.3789063 1.550777,-1.969296 3.624555,-2.6823657 5.365195,-2.1461133 1.854514,0.5713336 3.195176,2.421044 3.195176,4.7285739 0,2.54623 -2.116903,5.015986 -4.088496,7.052637 -1.971593,2.036653 -3.934453,3.55623 -3.934453,3.55623 a 0.87631855,0.87631855 0 0 1 -1.042266,0.02227 c 0,0 -2.070122,-1.462442 -4.148379,-3.472383 -2.078256,-2.00994 -4.311035,-4.500474 -4.311035,-7.15875 0,-2.4326541 1.482676,-4.2973217 3.429609,-4.8227341 0.36505,-0.098519 0.742987,-0.1494019 1.127051,-0.1520548 z"
     style="opacity:1;fill:#ffffff;stroke-width:0.0421045;paint-order:markers fill stroke"
     id="path4" />
</svg>
