<?xml version="1.0" encoding="UTF-8" standalone="no"?>
<!-- Uploaded to: SVG Repo, www.svgrepo.com, Generator: SVG Repo Mixer Tools -->

<svg
   width="524.93359"
   height="524.93359"
   viewBox="0 0 15.748008 15.748008"
   fill="none"
   version="1.1"
   id="svg2"
   sodipodi:docname="instagram.svg"
   inkscape:version="1.4.2 (ebf0e940, 2025-05-08)"
   xmlns:inkscape="http://www.inkscape.org/namespaces/inkscape"
   xmlns:sodipodi="http://sodipodi.sourceforge.net/DTD/sodipodi-0.dtd"
   xmlns="http://www.w3.org/2000/svg"
   xmlns:svg="http://www.w3.org/2000/svg">
  <defs
     id="defs2" />
  <sodipodi:namedview
     id="namedview2"
     pagecolor="#ffffff"
     bordercolor="#000000"
     borderopacity="0.25"
     inkscape:showpageshadow="2"
     inkscape:pageopacity="0.0"
     inkscape:pagecheckerboard="0"
     inkscape:deskcolor="#d1d1d1"
     inkscape:zoom="0.36195028"
     inkscape:cx="-109.13101"
     inkscape:cy="-153.33598"
     inkscape:window-width="1920"
     inkscape:window-height="968"
     inkscape:window-x="0"
     inkscape:window-y="25"
     inkscape:window-maximized="0"
     inkscape:current-layer="svg2" />
  <path
     d="M 7.8740039,0 A 7.8740096,7.8740096 0 0 0 0,7.874004 7.8740096,7.8740096 0 0 0 7.8740039,15.748008 7.8740096,7.8740096 0 0 0 15.748008,7.874004 7.8740096,7.8740096 0 0 0 7.8740039,0 Z m 0,2.847071 c 1.365669,0 1.536237,0.006 2.072109,0.03012 0.5352191,0.02447 0.9011461,0.10995 1.2208601,0.233613 0.335297,0.126297 0.639052,0.324156 0.890097,0.579785 0.255721,0.251121 0.453559,0.554951 0.579785,0.890391 0.124317,0.319715 0.209423,0.685368 0.233907,1.220566 0.02449,0.536209 0.03018,0.707145 0.03018,2.072461 0,1.365319 -0.0057,1.536237 -0.03018,2.072461 -0.02448,0.535168 -0.10954,0.900794 -0.233555,1.220508 -0.126277,0.335297 -0.324165,0.639053 -0.579785,0.890098 -0.251347,0.256073 -0.555353,0.453759 -0.890449,0.579785 -0.319714,0.124316 -0.68534,0.209426 -1.2205081,0.233906 -0.536224,0.02446 -0.707143,0.03018 -2.072461,0.03018 -1.365317,0 -1.536252,-0.0057 -2.072461,-0.03018 -0.535199,-0.02448 -0.900794,-0.109598 -1.220508,-0.233613 -0.335292,-0.126277 -0.639038,-0.324107 -0.890098,-0.579727 -0.256042,-0.251347 -0.453775,-0.555353 -0.579785,-0.890449 -0.124331,-0.319714 -0.209436,-0.68534 -0.233906,-1.220508 -0.02446,-0.536224 -0.03018,-0.706791 -0.03018,-2.072461 0,-1.365654 0.006,-1.536237 0.03018,-2.072109 0.02447,-0.535203 0.109891,-0.901203 0.233555,-1.220918 0.126296,-0.335296 0.324155,-0.639041 0.579785,-0.890098 0.251348,-0.256041 0.555324,-0.453717 0.890449,-0.579726 0.319714,-0.124332 0.685309,-0.209495 1.220508,-0.233965 0.536209,-0.02446 0.707144,-0.03012 2.072461,-0.03012 z m 0,0.905859 c -1.342192,0 -1.501392,0.005 -2.031563,0.02912 -0.489961,0.02246 -0.756055,0.104212 -0.93334,0.173262 -0.218366,0.08042 -0.415902,0.208824 -0.578086,0.375703 -0.175606,0.175943 -0.284883,0.343494 -0.375703,0.578086 -0.06937,0.177285 -0.150811,0.443379 -0.173261,0.93334 -0.02416,0.530171 -0.02912,0.68937 -0.02912,2.031562 0,1.342194 0.005,1.501363 0.02912,2.031504 0.02246,0.489976 0.104211,0.756099 0.173261,0.933399 0.08047,0.21832 0.208869,0.415865 0.375703,0.578085 0.162204,0.166843 0.359734,0.295205 0.578086,0.375645 0.177284,0.06937 0.443379,0.150782 0.93334,0.173262 0.530171,0.02416 0.689034,0.02918 2.031563,0.02918 1.342545,0 1.501421,-0.005 2.031562,-0.02918 0.4899761,-0.02247 0.7560401,-0.104192 0.9333401,-0.173262 0.21837,-0.08038 0.415917,-0.208751 0.578086,-0.375645 0.166844,-0.16222 0.295214,-0.359715 0.375645,-0.578085 0.06937,-0.1773 0.150846,-0.443423 0.17332,-0.933399 0.02415,-0.530141 0.02912,-0.68931 0.02912,-2.031504 0,-1.342192 -0.005,-1.501391 -0.02912,-2.031562 C 11.943487,5.35248 11.86171,5.086386 11.792637,4.909101 11.701847,4.674509 11.592935,4.506958 11.416992,4.331015 11.241049,4.155409 11.073514,4.046132 10.838906,3.955312 10.661606,3.885942 10.395542,3.8045 9.9055659,3.78205 9.3754239,3.75789 9.2161979,3.75293 7.8740039,3.75293 Z m 2.7247851,0.879492 c 0.161968,0 0.317331,0.06435 0.431894,0.178887 0.114514,0.114544 0.178829,0.269905 0.178829,0.431894 0,0.161982 -0.06431,0.317352 -0.178829,0.431895 -0.114563,0.114545 -0.269926,0.178887 -0.431894,0.178887 -0.162018,0 -0.317331,-0.06434 -0.431895,-0.178887 C 10.052381,5.560555 9.9880079,5.405185 9.9880079,5.243203 c 0,-0.161989 0.06437,-0.31735 0.1788861,-0.431894 0.114564,-0.114539 0.269877,-0.178887 0.431895,-0.178887 z M 7.8740039,5.290137 c 0.685273,0 1.342464,0.27223 1.827012,0.756797 0.4845971,0.484567 0.7568551,1.141797 0.7568551,1.82707 0,0.685273 -0.272258,1.342465 -0.7568551,1.827012 -0.484548,0.484598 -1.141739,0.756797 -1.827012,0.756797 -0.685273,0 -1.342509,-0.272199 -1.827071,-0.756797 -0.484568,-0.484547 -0.756796,-1.141739 -0.756796,-1.827012 0,-0.685273 0.272228,-1.342503 0.756796,-1.82707 0.484562,-0.484567 1.141798,-0.756797 1.827071,-0.756797 z m 0,0.906504 c -0.22028,0 -0.438354,0.04344 -0.641895,0.127734 -0.20349,0.0843 -0.388411,0.20782 -0.54416,0.363574 -0.155756,0.155756 -0.279284,0.340671 -0.363574,0.544161 -0.08429,0.203491 -0.127676,0.421614 -0.127676,0.641894 0,0.220281 0.04338,0.438405 0.127676,0.641895 0.08429,0.203491 0.207818,0.388375 0.363574,0.54416 0.155749,0.155735 0.34067,0.279274 0.54416,0.363574 0.203541,0.08429 0.421615,0.127676 0.641895,0.127676 0.444885,0 0.871468,-0.176714 1.186054,-0.49125 0.314536,-0.314586 0.491309,-0.741221 0.491309,-1.186055 0,-0.444834 -0.176773,-0.871479 -0.491309,-1.186055 C 8.7454719,6.373388 8.3188889,6.196641 7.8740039,6.196641 Z"
     style="fill:#ffffff;stroke-width:0.0283465;paint-order:markers fill stroke"
     id="path6" />
</svg>
