<?xml version="1.0" encoding="UTF-8" standalone="no"?>
<!-- Uploaded to: SVG Repo, www.svgrepo.com, Generator: SVG Repo Mixer Tools -->

<svg
   width="684.17188"
   height="684.17188"
   viewBox="0 0 20.525156 20.525156"
   fill="none"
   version="1.1"
   id="svg1"
   sodipodi:docname="reddit.svg"
   inkscape:version="1.4.2 (ebf0e940, 2025-05-08)"
   xmlns:inkscape="http://www.inkscape.org/namespaces/inkscape"
   xmlns:sodipodi="http://sodipodi.sourceforge.net/DTD/sodipodi-0.dtd"
   xmlns="http://www.w3.org/2000/svg"
   xmlns:svg="http://www.w3.org/2000/svg">
  <defs
     id="defs1" />
  <sodipodi:namedview
     id="namedview1"
     pagecolor="#ffffff"
     bordercolor="#000000"
     borderopacity="0.25"
     inkscape:showpageshadow="2"
     inkscape:pageopacity="0.0"
     inkscape:pagecheckerboard="0"
     inkscape:deskcolor="#d1d1d1"
     inkscape:zoom="0.511875"
     inkscape:cx="128.93773"
     inkscape:cy="336.99634"
     inkscape:window-width="1920"
     inkscape:window-height="968"
     inkscape:window-x="0"
     inkscape:window-y="25"
     inkscape:window-maximized="0"
     inkscape:current-layer="svg1" />
  <path
     d="M 10.262578,0 A 10.262575,10.262575 0 0 0 0,10.262578 10.262575,10.262575 0 0 0 10.262578,20.525156 10.262575,10.262575 0 0 0 20.525156,10.262578 10.262575,10.262575 0 0 0 10.262578,0 Z m 0.911133,3.0539648 c 0.02449,4.4e-4 0.0489,0.00333 0.07295,0.00861 l 2.94,0.5879883 c 0.1436,-0.24667 0.370427,-0.4341128 0.639727,-0.5286328 0.2693,-0.094529 0.563487,-0.089939 0.829687,0.012891 0.2663,0.10282 0.487227,0.2971445 0.623027,0.5481445 0.1359,0.251 0.17786,0.5422172 0.11836,0.8213672 -0.0595,0.27915 -0.216569,0.5279774 -0.442969,0.7017774 -0.2264,0.1737999 -0.507305,0.2611739 -0.792305,0.2465039 -0.2851,-0.01466 -0.55559,-0.130423 -0.76289,-0.326543 C 14.191897,4.9299642 14.061183,4.6663581 14.030683,4.3825781 l -2.567988,-0.54 -0.78,3.743965 c 1.6502,0.0354 3.2549,0.548085 4.62,1.476035 0.2439,-0.2341 0.550172,-0.392587 0.88207,-0.456387 0.3319,-0.06389 0.675236,-0.03041 0.988536,0.09639 0.3133,0.1269 0.583304,0.341598 0.777304,0.618398 0.194,0.2768 0.303755,0.603802 0.316055,0.9416019 0.0051,0.3306 -0.08337,0.655979 -0.255469,0.938379 -0.172,0.2824 -0.420384,0.510398 -0.716484,0.657598 0.0135,0.1757 0.0135,0.352346 0,0.528046 0,2.688 -3.132035,4.871954 -6.996035,4.871954 -3.8640005,0 -6.9959767,-2.183954 -6.9959767,-4.871954 -0.01351,-0.1757 -0.01351,-0.352346 0,-0.528046 -0.23081,-0.106 -0.4357917,-0.260961 -0.6007617,-0.454161 -0.16496,-0.1931 -0.2859594,-0.419836 -0.3546094,-0.664336 -0.06864,-0.2446 -0.083309,-0.501075 -0.042949,-0.7518749 0.04036,-0.2508 0.1347697,-0.489788 0.2766797,-0.700488 0.14191,-0.2106 0.3279162,-0.387892 0.5451562,-0.519492 0.21724,-0.1317 0.4604802,-0.214554 0.7129102,-0.242754 0.25242,-0.02831 0.5079753,-0.0013 0.7489453,0.07904 0.24098,0.0803 0.4616506,0.211974 0.6466406,0.386074 1.38273,-0.937779 3.0094598,-1.450786 4.6800001,-1.475976 L 10.802695,3.3505664 c 0.01,-0.0482 0.02939,-0.09395 0.05719,-0.1345899 0.0278,-0.04063 0.06339,-0.075339 0.10459,-0.1021289 0.0413,-0.02679 0.0876,-0.045106 0.135996,-0.053906 0.0242,-0.0044 0.04875,-0.00642 0.07324,-0.00598 z M 7.5250781,10.263984 c -0.1763423,-0.0086 -0.3531647,0.02178 -0.5176172,0.08988 -0.21927,0.0909 -0.4066751,0.244731 -0.5385351,0.442031 -0.1318597,0.197306 -0.2022657,0.429383 -0.2022657,0.666683 0,0.1576 0.031038,0.313607 0.091348,0.459199 0.0603,0.1456 0.1487262,0.277897 0.2601562,0.389297 0.11143,0.1115 0.2437069,0.199798 0.3892969,0.260098 0.14559,0.0604 0.3016192,0.09141 0.4591992,0.09141 0.23734,0 0.4693337,-0.07041 0.6666797,-0.202207 0.1973103,-0.1319 0.3511313,-0.319294 0.4420313,-0.538594 0.0908,-0.2193 0.114503,-0.460481 0.0682,-0.693281 -0.0463,-0.2328 -0.160518,-0.446614 -0.328418,-0.614414 -0.1677842,-0.167908 -0.3815726,-0.282122 -0.6143526,-0.328422 -0.058195,-0.0116 -0.1169417,-0.01878 -0.1757227,-0.02168 z m 5.4391989,0.04799 c -0.05878,0.0029 -0.117522,0.01008 -0.175722,0.02168 -0.2328,0.0463 -0.446556,0.160518 -0.614356,0.328418 -0.1678,0.1678 -0.282118,0.381614 -0.328418,0.614414 -0.0463,0.2328 -0.0226,0.47398 0.0682,0.693282 0.0909,0.219301 0.244673,0.406693 0.441973,0.538593 0.1974,0.1318 0.417426,0.250196 0.654726,0.250196 0.1627,0.0018 0.324117,-0.02957 0.474317,-0.09217 0.1502,-0.0625 0.286192,-0.155 0.399492,-0.2717 0.1134,-0.1168 0.201781,-0.255285 0.259981,-0.407285 0.0581,-0.152 0.08472,-0.314236 0.07822,-0.476836 0,-0.2373 -0.07041,-0.469379 -0.202207,-0.666679 -0.1319,-0.1973 -0.319294,-0.351132 -0.538594,-0.442032 -0.164475,-0.0681 -0.341287,-0.09848 -0.517617,-0.08988 z m -5.3889841,3.921328 c -0.00997,-4.4e-4 -0.020018,-4.29e-4 -0.030059,5.8e-5 -0.08034,0.004 -0.1563527,0.03771 -0.2132227,0.09451 -0.05688,0.0569 -0.090562,0.132923 -0.094512,0.213223 -0.00394,0.0804 0.022154,0.159284 0.073184,0.221484 0.85137,0.6416 1.8989235,0.968123 2.9640238,0.924023 1.0651,0.0441 2.112565,-0.234435 2.963965,-0.876035 0.0315,-0.0307 0.0567,-0.06741 0.074,-0.107812 0.01739,-0.0405 0.02659,-0.08387 0.02719,-0.127969 5e-4,-0.044 -0.0076,-0.0877 -0.02391,-0.128496 -0.0163,-0.0409 -0.04055,-0.07819 -0.07125,-0.109688 -0.0307,-0.0315 -0.06741,-0.0567 -0.107813,-0.074 -0.0405,-0.01745 -0.08393,-0.02665 -0.128027,-0.02725 -0.0888,-0.0011 -0.174484,0.03311 -0.238184,0.09521 -0.7283,0.5224 -1.612988,0.780712 -2.507988,0.732012 -0.8939003,0.0399 -1.7745353,-0.226777 -2.4960353,-0.755977 -0.054399,-0.04463 -0.1215932,-0.0702 -0.1913672,-0.0733 z"
     style="opacity:1;fill:#ffffff;stroke-width:0.0393938;paint-order:markers fill stroke"
     id="path16" />
</svg>
